<svg xmlns="http://www.w3.org/2000/svg" viewBox="0 0 64 64" role="img" aria-label="MiSTer custom database inspector favicon">
  <defs>
    <linearGradient id="bg" x1="8" y1="6" x2="56" y2="58" gradientUnits="userSpaceOnUse">
      <stop offset="0" stop-color="#1f4d79" />
      <stop offset="0.6" stop-color="#16212f" />
      <stop offset="1" stop-color="#0f1722" />
    </linearGradient>
    <linearGradient id="dbTop" x1="17" y1="12" x2="45" y2="24" gradientUnits="userSpaceOnUse">
      <stop offset="0" stop-color="#9cd7e7" />
      <stop offset="1" stop-color="#39a4c4" />
    </linearGradient>
    <linearGradient id="dbBody" x1="20" y1="18" x2="42" y2="44" gradientUnits="userSpaceOnUse">
      <stop offset="0" stop-color="#1280a4" />
      <stop offset="1" stop-color="#0b5f7d" />
    </linearGradient>
  </defs>

  <rect x="4" y="4" width="56" height="56" rx="16" fill="url(#bg)" />
  <circle cx="50" cy="14" r="11" fill="#dd6d3d" opacity="0.12" />

  <path
    d="M17 20v16c0 3.5 6.3 6.5 14 6.5s14-3 14-6.5V20"
    fill="url(#dbBody)"
    stroke="#f5efe2"
    stroke-opacity="0.16"
    stroke-width="1.2"
  />
  <ellipse
    cx="31"
    cy="20"
    rx="14"
    ry="6.5"
    fill="url(#dbTop)"
    stroke="#f5efe2"
    stroke-opacity="0.35"
    stroke-width="1.2"
  />
  <ellipse cx="31" cy="28" rx="14" ry="6.2" fill="none" stroke="#f5efe2" stroke-opacity="0.22" stroke-width="1.8" />
  <ellipse cx="31" cy="36" rx="14" ry="6.2" fill="#0a4f67" stroke="#f5efe2" stroke-opacity="0.2" stroke-width="1.2" />

  <circle cx="40" cy="39" r="8.5" fill="#f5efe2" fill-opacity="0.08" stroke="#dd6d3d" stroke-width="4" />
  <path d="M46.2 45.2 52.4 51.4" fill="none" stroke="#dd6d3d" stroke-width="4.6" stroke-linecap="round" />

  <circle cx="36.5" cy="36" r="1.4" fill="#f5efe2" />
  <circle cx="41.8" cy="39" r="1.4" fill="#f5efe2" />
  <circle cx="38.7" cy="42.4" r="1.4" fill="#f5efe2" />
  <path d="M36.5 36 41.8 39 38.7 42.4" fill="none" stroke="#f5efe2" stroke-width="1.4" stroke-linecap="round" stroke-linejoin="round" opacity="0.9" />
</svg>
