<svg xmlns="http://www.w3.org/2000/svg" viewBox="0 0 64 64" role="img" aria-label="MiSTer downloader database inspector favicon">
  <defs>
    <linearGradient id="dbTop" x1="10" y1="11" x2="43" y2="26" gradientUnits="userSpaceOnUse">
      <stop offset="0" stop-color="#b4e5f0" />
      <stop offset="1" stop-color="#49afca" />
    </linearGradient>
    <linearGradient id="dbBody" x1="12" y1="18" x2="42" y2="48" gradientUnits="userSpaceOnUse">
      <stop offset="0" stop-color="#1384a7" />
      <stop offset="1" stop-color="#0d617f" />
    </linearGradient>
    <linearGradient id="lens" x1="33" y1="28" x2="56" y2="53" gradientUnits="userSpaceOnUse">
      <stop offset="0" stop-color="#eb8451" />
      <stop offset="1" stop-color="#c65128" />
    </linearGradient>
  </defs>

  <path
    d="M12 18v20c0 4.4 7.6 8 17 8s17-3.6 17-8V18"
    fill="url(#dbBody)"
    stroke="#f8f3e7"
    stroke-opacity="0.34"
    stroke-width="1.4"
  />
  <ellipse
    cx="29"
    cy="18"
    rx="17"
    ry="8"
    fill="url(#dbTop)"
    stroke="#f8f3e7"
    stroke-opacity="0.6"
    stroke-width="1.4"
  />
  <ellipse
    cx="29"
    cy="28"
    rx="17"
    ry="7.3"
    fill="none"
    stroke="#f8f3e7"
    stroke-opacity="0.3"
    stroke-width="2"
  />
  <ellipse
    cx="29"
    cy="38"
    rx="17"
    ry="7.3"
    fill="#0a526c"
    stroke="#f8f3e7"
    stroke-opacity="0.24"
    stroke-width="1.4"
  />

  <circle cx="42" cy="40" r="11" fill="#fff8eb" fill-opacity="0.12" stroke="url(#lens)" stroke-width="5.2" />
  <path d="M50 48 57 55" fill="none" stroke="url(#lens)" stroke-width="5.2" stroke-linecap="round" />

  <circle cx="37.5" cy="36.5" r="1.8" fill="#fff8eb" />
  <circle cx="44.5" cy="40.2" r="1.8" fill="#fff8eb" />
  <circle cx="40.4" cy="45" r="1.8" fill="#fff8eb" />
  <path
    d="M37.5 36.5 44.5 40.2 40.4 45"
    fill="none"
    stroke="#fff8eb"
    stroke-width="1.8"
    stroke-linecap="round"
    stroke-linejoin="round"
  />
</svg>
